<svg fill="#5c6bc0" width="64px" height="64px" viewBox="0 0 16 16" xmlns="http://www.w3.org/2000/svg" transform="matrix(1, 0, 0, 1, 0, 0)"><g id="SVGRepo_bgCarrier" stroke-width="0"></g><g id="SVGRepo_tracerCarrier" stroke-linecap="round" stroke-linejoin="round"></g><g id="SVGRepo_iconCarrier"> <path d="M5.843 6.05l2.121 2.122 2.122-2.122L11.5 7.464 7.964 11 4.43 7.464 5.843 6.05zM16 8c0 4.418-3.59 8-8 8-4.418 0-8-3.59-8-8 0-4.418 3.59-8 8-8 4.418 0 8 3.59 8 8zm-2 0c0-3.307-2.686-6-6-6-3.307 0-6 2.686-6 6 0 3.307 2.686 6 6 6 3.307 0 6-2.686 6-6z" fill-rule="evenodd"></path> </g></svg>